<mxfile host="app.diagrams.net" modified="2023-05-11T14:09:29.756Z" agent="Mozilla/5.0 (Windows NT 10.0; Win64; x64) AppleWebKit/537.36 (KHTML, like Gecko) Chrome/113.0.0.0 Safari/537.36" etag="BWCkDMotTkuURanHtIL4" version="21.1.5" type="device">
  <diagram name="Page-1" id="2YBvvXClWsGukQMizWep">
    <mxGraphModel dx="1593" dy="849" grid="1" gridSize="10" guides="1" tooltips="1" connect="1" arrows="1" fold="1" page="1" pageScale="1" pageWidth="850" pageHeight="1100" math="0" shadow="0">
      <root>
        <mxCell id="0" />
        <mxCell id="1" parent="0" />
        <mxCell id="aM9ryv3xv72pqoxQDRHE-1" value=":HomePage" style="shape=umlLifeline;perimeter=lifelinePerimeter;whiteSpace=wrap;html=1;container=0;dropTarget=0;collapsible=0;recursiveResize=0;outlineConnect=0;portConstraint=eastwest;newEdgeStyle={&quot;edgeStyle&quot;:&quot;elbowEdgeStyle&quot;,&quot;elbow&quot;:&quot;vertical&quot;,&quot;curved&quot;:0,&quot;rounded&quot;:0};" parent="1" vertex="1">
          <mxGeometry x="145" y="60" width="100" height="640" as="geometry" />
        </mxCell>
        <mxCell id="aM9ryv3xv72pqoxQDRHE-2" value="" style="html=1;points=[];perimeter=orthogonalPerimeter;outlineConnect=0;targetShapes=umlLifeline;portConstraint=eastwest;newEdgeStyle={&quot;edgeStyle&quot;:&quot;elbowEdgeStyle&quot;,&quot;elbow&quot;:&quot;vertical&quot;,&quot;curved&quot;:0,&quot;rounded&quot;:0};" parent="aM9ryv3xv72pqoxQDRHE-1" vertex="1">
          <mxGeometry x="45" y="70" width="10" height="60" as="geometry" />
        </mxCell>
        <mxCell id="aM9ryv3xv72pqoxQDRHE-3" value="request" style="html=1;verticalAlign=bottom;startArrow=oval;endArrow=block;startSize=8;edgeStyle=elbowEdgeStyle;elbow=vertical;curved=0;rounded=0;" parent="aM9ryv3xv72pqoxQDRHE-1" target="aM9ryv3xv72pqoxQDRHE-2" edge="1">
          <mxGeometry relative="1" as="geometry">
            <mxPoint x="-35" y="70" as="sourcePoint" />
          </mxGeometry>
        </mxCell>
        <mxCell id="aM9ryv3xv72pqoxQDRHE-5" value=":Database" style="shape=umlLifeline;perimeter=lifelinePerimeter;whiteSpace=wrap;html=1;container=0;dropTarget=0;collapsible=0;recursiveResize=0;outlineConnect=0;portConstraint=eastwest;newEdgeStyle={&quot;edgeStyle&quot;:&quot;elbowEdgeStyle&quot;,&quot;elbow&quot;:&quot;vertical&quot;,&quot;curved&quot;:0,&quot;rounded&quot;:0};" parent="1" vertex="1">
          <mxGeometry x="325" y="60" width="100" height="640" as="geometry" />
        </mxCell>
        <mxCell id="aM9ryv3xv72pqoxQDRHE-6" value="" style="html=1;points=[];perimeter=orthogonalPerimeter;outlineConnect=0;targetShapes=umlLifeline;portConstraint=eastwest;newEdgeStyle={&quot;edgeStyle&quot;:&quot;elbowEdgeStyle&quot;,&quot;elbow&quot;:&quot;vertical&quot;,&quot;curved&quot;:0,&quot;rounded&quot;:0};" parent="aM9ryv3xv72pqoxQDRHE-5" vertex="1">
          <mxGeometry x="45" y="80" width="10" height="50" as="geometry" />
        </mxCell>
        <mxCell id="VN1_-yZsY-Tl6r2EW4pC-9" value="" style="html=1;points=[];perimeter=orthogonalPerimeter;outlineConnect=0;targetShapes=umlLifeline;portConstraint=eastwest;newEdgeStyle={&quot;edgeStyle&quot;:&quot;elbowEdgeStyle&quot;,&quot;elbow&quot;:&quot;vertical&quot;,&quot;curved&quot;:0,&quot;rounded&quot;:0};" vertex="1" parent="aM9ryv3xv72pqoxQDRHE-5">
          <mxGeometry x="-135" y="270" width="10" height="40" as="geometry" />
        </mxCell>
        <mxCell id="VN1_-yZsY-Tl6r2EW4pC-10" value="" style="html=1;points=[];perimeter=orthogonalPerimeter;outlineConnect=0;targetShapes=umlLifeline;portConstraint=eastwest;newEdgeStyle={&quot;edgeStyle&quot;:&quot;elbowEdgeStyle&quot;,&quot;elbow&quot;:&quot;vertical&quot;,&quot;curved&quot;:0,&quot;rounded&quot;:0};" vertex="1" parent="aM9ryv3xv72pqoxQDRHE-5">
          <mxGeometry x="45" y="270" width="10" height="40" as="geometry" />
        </mxCell>
        <mxCell id="VN1_-yZsY-Tl6r2EW4pC-11" value="selectCategory(String)" style="html=1;verticalAlign=bottom;endArrow=block;edgeStyle=elbowEdgeStyle;elbow=vertical;curved=0;rounded=0;" edge="1" parent="aM9ryv3xv72pqoxQDRHE-5">
          <mxGeometry relative="1" as="geometry">
            <mxPoint x="-125" y="270" as="sourcePoint" />
            <Array as="points">
              <mxPoint x="-40" y="270" />
            </Array>
            <mxPoint x="45" y="270" as="targetPoint" />
            <mxPoint as="offset" />
          </mxGeometry>
        </mxCell>
        <mxCell id="VN1_-yZsY-Tl6r2EW4pC-12" value="listContents" style="html=1;verticalAlign=bottom;endArrow=block;edgeStyle=elbowEdgeStyle;elbow=vertical;curved=0;rounded=0;dashed=1;" edge="1" parent="aM9ryv3xv72pqoxQDRHE-5">
          <mxGeometry x="-0.0303" relative="1" as="geometry">
            <mxPoint x="45" y="300" as="sourcePoint" />
            <Array as="points">
              <mxPoint x="-30" y="300" />
            </Array>
            <mxPoint x="-125" y="300" as="targetPoint" />
            <mxPoint as="offset" />
          </mxGeometry>
        </mxCell>
        <mxCell id="VN1_-yZsY-Tl6r2EW4pC-13" value="&lt;font style=&quot;font-size: 8px;&quot;&gt;alt&lt;/font&gt;" style="shape=umlFrame;whiteSpace=wrap;html=1;pointerEvents=0;width=20;height=15;align=left;" vertex="1" parent="aM9ryv3xv72pqoxQDRHE-5">
          <mxGeometry x="-185" y="250" width="260" height="70" as="geometry" />
        </mxCell>
        <mxCell id="VN1_-yZsY-Tl6r2EW4pC-4" value="" style="html=1;points=[];perimeter=orthogonalPerimeter;outlineConnect=0;targetShapes=umlLifeline;portConstraint=eastwest;newEdgeStyle={&quot;edgeStyle&quot;:&quot;elbowEdgeStyle&quot;,&quot;elbow&quot;:&quot;vertical&quot;,&quot;curved&quot;:0,&quot;rounded&quot;:0};" vertex="1" parent="aM9ryv3xv72pqoxQDRHE-5">
          <mxGeometry x="-135" y="180" width="10" height="40" as="geometry" />
        </mxCell>
        <mxCell id="VN1_-yZsY-Tl6r2EW4pC-5" value="" style="html=1;points=[];perimeter=orthogonalPerimeter;outlineConnect=0;targetShapes=umlLifeline;portConstraint=eastwest;newEdgeStyle={&quot;edgeStyle&quot;:&quot;elbowEdgeStyle&quot;,&quot;elbow&quot;:&quot;vertical&quot;,&quot;curved&quot;:0,&quot;rounded&quot;:0};" vertex="1" parent="aM9ryv3xv72pqoxQDRHE-5">
          <mxGeometry x="45" y="180" width="10" height="40" as="geometry" />
        </mxCell>
        <mxCell id="VN1_-yZsY-Tl6r2EW4pC-1" value="searchContents(String)" style="html=1;verticalAlign=bottom;endArrow=block;edgeStyle=elbowEdgeStyle;elbow=vertical;curved=0;rounded=0;" edge="1" parent="aM9ryv3xv72pqoxQDRHE-5">
          <mxGeometry relative="1" as="geometry">
            <mxPoint x="-125" y="180" as="sourcePoint" />
            <Array as="points">
              <mxPoint x="-40" y="180" />
            </Array>
            <mxPoint x="45" y="180" as="targetPoint" />
            <mxPoint as="offset" />
          </mxGeometry>
        </mxCell>
        <mxCell id="VN1_-yZsY-Tl6r2EW4pC-2" value="listContents" style="html=1;verticalAlign=bottom;endArrow=block;edgeStyle=elbowEdgeStyle;elbow=vertical;curved=0;rounded=0;dashed=1;" edge="1" parent="aM9ryv3xv72pqoxQDRHE-5">
          <mxGeometry x="-0.0303" relative="1" as="geometry">
            <mxPoint x="45" y="210" as="sourcePoint" />
            <Array as="points">
              <mxPoint x="-30" y="210" />
            </Array>
            <mxPoint x="-125" y="210" as="targetPoint" />
            <mxPoint as="offset" />
          </mxGeometry>
        </mxCell>
        <mxCell id="VN1_-yZsY-Tl6r2EW4pC-8" value="&lt;font style=&quot;font-size: 8px;&quot;&gt;alt&lt;/font&gt;" style="shape=umlFrame;whiteSpace=wrap;html=1;pointerEvents=0;width=20;height=15;align=left;" vertex="1" parent="aM9ryv3xv72pqoxQDRHE-5">
          <mxGeometry x="-185" y="160" width="260" height="70" as="geometry" />
        </mxCell>
        <mxCell id="VN1_-yZsY-Tl6r2EW4pC-57" value="" style="html=1;points=[];perimeter=orthogonalPerimeter;outlineConnect=0;targetShapes=umlLifeline;portConstraint=eastwest;newEdgeStyle={&quot;edgeStyle&quot;:&quot;elbowEdgeStyle&quot;,&quot;elbow&quot;:&quot;vertical&quot;,&quot;curved&quot;:0,&quot;rounded&quot;:0};" vertex="1" parent="aM9ryv3xv72pqoxQDRHE-5">
          <mxGeometry x="-135" y="360" width="10" height="40" as="geometry" />
        </mxCell>
        <mxCell id="VN1_-yZsY-Tl6r2EW4pC-58" value="" style="html=1;points=[];perimeter=orthogonalPerimeter;outlineConnect=0;targetShapes=umlLifeline;portConstraint=eastwest;newEdgeStyle={&quot;edgeStyle&quot;:&quot;elbowEdgeStyle&quot;,&quot;elbow&quot;:&quot;vertical&quot;,&quot;curved&quot;:0,&quot;rounded&quot;:0};" vertex="1" parent="aM9ryv3xv72pqoxQDRHE-5">
          <mxGeometry x="45" y="360" width="10" height="40" as="geometry" />
        </mxCell>
        <mxCell id="VN1_-yZsY-Tl6r2EW4pC-59" value="listTrends()" style="html=1;verticalAlign=bottom;endArrow=block;edgeStyle=elbowEdgeStyle;elbow=vertical;curved=0;rounded=0;" edge="1" parent="aM9ryv3xv72pqoxQDRHE-5">
          <mxGeometry relative="1" as="geometry">
            <mxPoint x="-125" y="360" as="sourcePoint" />
            <Array as="points">
              <mxPoint x="-40" y="360" />
            </Array>
            <mxPoint x="45" y="360" as="targetPoint" />
            <mxPoint as="offset" />
          </mxGeometry>
        </mxCell>
        <mxCell id="VN1_-yZsY-Tl6r2EW4pC-60" value="listContents" style="html=1;verticalAlign=bottom;endArrow=block;edgeStyle=elbowEdgeStyle;elbow=vertical;curved=0;rounded=0;dashed=1;" edge="1" parent="aM9ryv3xv72pqoxQDRHE-5">
          <mxGeometry x="-0.0303" relative="1" as="geometry">
            <mxPoint x="45" y="390" as="sourcePoint" />
            <Array as="points">
              <mxPoint x="-30" y="390" />
            </Array>
            <mxPoint x="-125" y="390" as="targetPoint" />
            <mxPoint as="offset" />
          </mxGeometry>
        </mxCell>
        <mxCell id="VN1_-yZsY-Tl6r2EW4pC-61" value="&lt;font style=&quot;font-size: 8px;&quot;&gt;alt&lt;/font&gt;" style="shape=umlFrame;whiteSpace=wrap;html=1;pointerEvents=0;width=20;height=15;align=left;" vertex="1" parent="aM9ryv3xv72pqoxQDRHE-5">
          <mxGeometry x="-185" y="340" width="260" height="70" as="geometry" />
        </mxCell>
        <mxCell id="aM9ryv3xv72pqoxQDRHE-7" value="getContents()" style="html=1;verticalAlign=bottom;endArrow=block;edgeStyle=elbowEdgeStyle;elbow=vertical;curved=0;rounded=0;" parent="1" source="aM9ryv3xv72pqoxQDRHE-2" target="aM9ryv3xv72pqoxQDRHE-6" edge="1">
          <mxGeometry relative="1" as="geometry">
            <mxPoint x="300" y="150" as="sourcePoint" />
            <Array as="points">
              <mxPoint x="285" y="140" />
            </Array>
          </mxGeometry>
        </mxCell>
        <mxCell id="aM9ryv3xv72pqoxQDRHE-9" value="listContents" style="html=1;verticalAlign=bottom;endArrow=block;edgeStyle=elbowEdgeStyle;elbow=vertical;curved=0;rounded=0;dashed=1;" parent="1" source="aM9ryv3xv72pqoxQDRHE-6" edge="1">
          <mxGeometry x="-0.0303" relative="1" as="geometry">
            <mxPoint x="280" y="180" as="sourcePoint" />
            <Array as="points">
              <mxPoint x="295" y="180" />
            </Array>
            <mxPoint x="200" y="180" as="targetPoint" />
            <mxPoint as="offset" />
          </mxGeometry>
        </mxCell>
        <mxCell id="VN1_-yZsY-Tl6r2EW4pC-14" value=":ContentDetailPage" style="shape=umlLifeline;perimeter=lifelinePerimeter;whiteSpace=wrap;html=1;container=0;dropTarget=0;collapsible=0;recursiveResize=0;outlineConnect=0;portConstraint=eastwest;newEdgeStyle={&quot;edgeStyle&quot;:&quot;elbowEdgeStyle&quot;,&quot;elbow&quot;:&quot;vertical&quot;,&quot;curved&quot;:0,&quot;rounded&quot;:0};" vertex="1" parent="1">
          <mxGeometry x="500" y="60" width="110" height="540" as="geometry" />
        </mxCell>
        <mxCell id="VN1_-yZsY-Tl6r2EW4pC-29" value="" style="html=1;points=[];perimeter=orthogonalPerimeter;outlineConnect=0;targetShapes=umlLifeline;portConstraint=eastwest;newEdgeStyle={&quot;edgeStyle&quot;:&quot;elbowEdgeStyle&quot;,&quot;elbow&quot;:&quot;vertical&quot;,&quot;curved&quot;:0,&quot;rounded&quot;:0};" vertex="1" parent="VN1_-yZsY-Tl6r2EW4pC-14">
          <mxGeometry x="-310" y="460" width="10" height="50" as="geometry" />
        </mxCell>
        <mxCell id="VN1_-yZsY-Tl6r2EW4pC-45" value="" style="html=1;points=[];perimeter=orthogonalPerimeter;outlineConnect=0;targetShapes=umlLifeline;portConstraint=eastwest;newEdgeStyle={&quot;edgeStyle&quot;:&quot;elbowEdgeStyle&quot;,&quot;elbow&quot;:&quot;vertical&quot;,&quot;curved&quot;:0,&quot;rounded&quot;:0};" vertex="1" parent="VN1_-yZsY-Tl6r2EW4pC-14">
          <mxGeometry x="-310" y="610" width="10" height="50" as="geometry" />
        </mxCell>
        <mxCell id="VN1_-yZsY-Tl6r2EW4pC-49" value="" style="html=1;points=[];perimeter=orthogonalPerimeter;outlineConnect=0;targetShapes=umlLifeline;portConstraint=eastwest;newEdgeStyle={&quot;edgeStyle&quot;:&quot;elbowEdgeStyle&quot;,&quot;elbow&quot;:&quot;vertical&quot;,&quot;curved&quot;:0,&quot;rounded&quot;:0};" vertex="1" parent="VN1_-yZsY-Tl6r2EW4pC-14">
          <mxGeometry x="-130" y="630" width="10" height="40" as="geometry" />
        </mxCell>
        <mxCell id="VN1_-yZsY-Tl6r2EW4pC-31" value="" style="html=1;points=[];perimeter=orthogonalPerimeter;outlineConnect=0;targetShapes=umlLifeline;portConstraint=eastwest;newEdgeStyle={&quot;edgeStyle&quot;:&quot;elbowEdgeStyle&quot;,&quot;elbow&quot;:&quot;vertical&quot;,&quot;curved&quot;:0,&quot;rounded&quot;:0};" vertex="1" parent="VN1_-yZsY-Tl6r2EW4pC-14">
          <mxGeometry x="50" y="460" width="10" height="50" as="geometry" />
        </mxCell>
        <mxCell id="VN1_-yZsY-Tl6r2EW4pC-32" value="" style="endArrow=classic;html=1;rounded=0;endSize=6;fontSize=11;" edge="1" parent="VN1_-yZsY-Tl6r2EW4pC-14" source="VN1_-yZsY-Tl6r2EW4pC-29">
          <mxGeometry width="50" height="50" relative="1" as="geometry">
            <mxPoint x="-170" y="490" as="sourcePoint" />
            <mxPoint x="50" y="460" as="targetPoint" />
          </mxGeometry>
        </mxCell>
        <mxCell id="VN1_-yZsY-Tl6r2EW4pC-33" value="clickContent(int)" style="text;html=1;strokeColor=none;fillColor=none;align=center;verticalAlign=middle;whiteSpace=wrap;rounded=0;" vertex="1" parent="VN1_-yZsY-Tl6r2EW4pC-14">
          <mxGeometry x="-120" y="440" width="120" height="20" as="geometry" />
        </mxCell>
        <mxCell id="VN1_-yZsY-Tl6r2EW4pC-35" value="" style="endArrow=classic;html=1;rounded=0;" edge="1" parent="VN1_-yZsY-Tl6r2EW4pC-14" source="VN1_-yZsY-Tl6r2EW4pC-37">
          <mxGeometry width="50" height="50" relative="1" as="geometry">
            <mxPoint x="50" y="510" as="sourcePoint" />
            <mxPoint x="-125.45238095238074" y="500" as="targetPoint" />
            <Array as="points" />
          </mxGeometry>
        </mxCell>
        <mxCell id="VN1_-yZsY-Tl6r2EW4pC-36" value="" style="endArrow=none;html=1;rounded=0;dashed=1;startArrow=classic;startFill=1;endFill=0;" edge="1" parent="VN1_-yZsY-Tl6r2EW4pC-14">
          <mxGeometry width="50" height="50" relative="1" as="geometry">
            <mxPoint x="50" y="510" as="sourcePoint" />
            <mxPoint x="-125" y="510" as="targetPoint" />
            <Array as="points">
              <mxPoint x="-35" y="510" />
            </Array>
          </mxGeometry>
        </mxCell>
        <mxCell id="VN1_-yZsY-Tl6r2EW4pC-38" value="" style="endArrow=classic;html=1;rounded=0;" edge="1" parent="VN1_-yZsY-Tl6r2EW4pC-14" source="VN1_-yZsY-Tl6r2EW4pC-31" target="VN1_-yZsY-Tl6r2EW4pC-37">
          <mxGeometry width="50" height="50" relative="1" as="geometry">
            <mxPoint x="50" y="490" as="sourcePoint" />
            <mxPoint x="-125" y="490" as="targetPoint" />
            <Array as="points">
              <mxPoint x="-30" y="490" />
            </Array>
          </mxGeometry>
        </mxCell>
        <mxCell id="VN1_-yZsY-Tl6r2EW4pC-37" value="" style="html=1;points=[];perimeter=orthogonalPerimeter;outlineConnect=0;targetShapes=umlLifeline;portConstraint=eastwest;newEdgeStyle={&quot;edgeStyle&quot;:&quot;elbowEdgeStyle&quot;,&quot;elbow&quot;:&quot;vertical&quot;,&quot;curved&quot;:0,&quot;rounded&quot;:0};" vertex="1" parent="VN1_-yZsY-Tl6r2EW4pC-14">
          <mxGeometry x="-130" y="480" width="10" height="40" as="geometry" />
        </mxCell>
        <mxCell id="VN1_-yZsY-Tl6r2EW4pC-39" value="getContentDetail(Content)" style="text;html=1;strokeColor=none;fillColor=none;align=center;verticalAlign=middle;whiteSpace=wrap;rounded=0;" vertex="1" parent="VN1_-yZsY-Tl6r2EW4pC-14">
          <mxGeometry x="-100" y="470" width="140" height="20" as="geometry" />
        </mxCell>
        <mxCell id="VN1_-yZsY-Tl6r2EW4pC-41" value="contentDetails" style="text;html=1;strokeColor=none;fillColor=none;align=center;verticalAlign=middle;whiteSpace=wrap;rounded=0;" vertex="1" parent="VN1_-yZsY-Tl6r2EW4pC-14">
          <mxGeometry x="-80" y="510" width="70" height="15" as="geometry" />
        </mxCell>
        <mxCell id="VN1_-yZsY-Tl6r2EW4pC-43" value="&lt;font style=&quot;font-size: 9px;&quot;&gt;alt&lt;/font&gt;" style="shape=umlFrame;whiteSpace=wrap;html=1;pointerEvents=0;width=20;height=15;align=left;" vertex="1" parent="VN1_-yZsY-Tl6r2EW4pC-14">
          <mxGeometry x="-360" y="430" width="460" height="110" as="geometry" />
        </mxCell>
        <mxCell id="VN1_-yZsY-Tl6r2EW4pC-46" value="" style="html=1;points=[];perimeter=orthogonalPerimeter;outlineConnect=0;targetShapes=umlLifeline;portConstraint=eastwest;newEdgeStyle={&quot;edgeStyle&quot;:&quot;elbowEdgeStyle&quot;,&quot;elbow&quot;:&quot;vertical&quot;,&quot;curved&quot;:0,&quot;rounded&quot;:0};" vertex="1" parent="VN1_-yZsY-Tl6r2EW4pC-14">
          <mxGeometry x="220" y="610" width="10" height="50" as="geometry" />
        </mxCell>
        <mxCell id="VN1_-yZsY-Tl6r2EW4pC-47" value="" style="endArrow=classic;html=1;rounded=0;" edge="1" parent="VN1_-yZsY-Tl6r2EW4pC-14" target="VN1_-yZsY-Tl6r2EW4pC-46">
          <mxGeometry width="50" height="50" relative="1" as="geometry">
            <mxPoint x="-300" y="610" as="sourcePoint" />
            <mxPoint x="-250" y="560" as="targetPoint" />
          </mxGeometry>
        </mxCell>
        <mxCell id="VN1_-yZsY-Tl6r2EW4pC-48" value="clickProfile(int)" style="text;html=1;strokeColor=none;fillColor=none;align=center;verticalAlign=middle;whiteSpace=wrap;rounded=0;" vertex="1" parent="VN1_-yZsY-Tl6r2EW4pC-14">
          <mxGeometry x="-80" y="590" width="80" height="20" as="geometry" />
        </mxCell>
        <mxCell id="VN1_-yZsY-Tl6r2EW4pC-50" value="" style="endArrow=classic;html=1;rounded=0;" edge="1" parent="VN1_-yZsY-Tl6r2EW4pC-14">
          <mxGeometry width="50" height="50" relative="1" as="geometry">
            <mxPoint x="220" y="640" as="sourcePoint" />
            <mxPoint x="-120" y="640" as="targetPoint" />
            <Array as="points">
              <mxPoint x="-30" y="640" />
            </Array>
          </mxGeometry>
        </mxCell>
        <mxCell id="VN1_-yZsY-Tl6r2EW4pC-51" value="getUserInfo(int)" style="text;html=1;strokeColor=none;fillColor=none;align=center;verticalAlign=middle;whiteSpace=wrap;rounded=0;" vertex="1" parent="VN1_-yZsY-Tl6r2EW4pC-14">
          <mxGeometry x="-60" y="620" width="110" height="20" as="geometry" />
        </mxCell>
        <mxCell id="VN1_-yZsY-Tl6r2EW4pC-52" value="" style="endArrow=none;html=1;rounded=0;dashed=1;startArrow=classic;startFill=1;endFill=0;" edge="1" parent="VN1_-yZsY-Tl6r2EW4pC-14">
          <mxGeometry width="50" height="50" relative="1" as="geometry">
            <mxPoint x="220" y="660" as="sourcePoint" />
            <mxPoint x="-120" y="660" as="targetPoint" />
            <Array as="points">
              <mxPoint x="-30" y="660" />
            </Array>
          </mxGeometry>
        </mxCell>
        <mxCell id="VN1_-yZsY-Tl6r2EW4pC-53" value="UserInformation" style="text;html=1;strokeColor=none;fillColor=none;align=center;verticalAlign=middle;whiteSpace=wrap;rounded=0;" vertex="1" parent="VN1_-yZsY-Tl6r2EW4pC-14">
          <mxGeometry x="70" y="660" width="90" height="20" as="geometry" />
        </mxCell>
        <mxCell id="VN1_-yZsY-Tl6r2EW4pC-56" value="&lt;font style=&quot;font-size: 9px;&quot;&gt;alt&lt;/font&gt;" style="shape=umlFrame;whiteSpace=wrap;html=1;pointerEvents=0;width=20;height=15;align=left;" vertex="1" parent="VN1_-yZsY-Tl6r2EW4pC-14">
          <mxGeometry x="-360" y="590" width="610" height="110" as="geometry" />
        </mxCell>
        <mxCell id="VN1_-yZsY-Tl6r2EW4pC-44" value=":ProfilePage" style="shape=umlLifeline;perimeter=lifelinePerimeter;whiteSpace=wrap;html=1;container=0;dropTarget=0;collapsible=0;recursiveResize=0;outlineConnect=0;portConstraint=eastwest;newEdgeStyle={&quot;edgeStyle&quot;:&quot;elbowEdgeStyle&quot;,&quot;elbow&quot;:&quot;vertical&quot;,&quot;curved&quot;:0,&quot;rounded&quot;:0};" vertex="1" parent="1">
          <mxGeometry x="670" y="60" width="110" height="610" as="geometry" />
        </mxCell>
      </root>
    </mxGraphModel>
  </diagram>
</mxfile>
